# xmcd
#
# Track frame offsets: 
#        150
#        14385
#        28012
#        41680
#        54425
#        67597
#        82287
#        97962
#        112280
#        128367
#
# Disc length: 1897 seconds
#
# Revision: 0
# Processed by: cddbd v1.5.1PL2 Copyright (c) Steve Scherf et al.
# Submitted via: ExactAudioCopy v0.95b3
#
DISCID=7b07670a
DTITLE=Alan Darby - Cafe Blues
DYEAR=1999
DGENRE=Blues
TTITLE0=Bad Luck Blues
TTITLE1=Sliding Around
TTITLE2=Cotton Pickin'
TTITLE3=Walking to Memphis
TTITLE4=Voodoo Man
TTITLE5=Blues for Horns
TTITLE6=Penitentiary Blues
TTITLE7=Woman Trouble
TTITLE8=Down on my Luck
TTITLE9=Night Train
EXTD=
EXTT0=
EXTT1=
EXTT2=
EXTT3=
EXTT4=
EXTT5=
EXTT6=
EXTT7=
EXTT8=
EXTT9=
PLAYORDER=
